# xmcd CD database file
# Copyright (C) 1997 Ti Kan
# 
# Track frame offsets:
#     182
#     17702
#     49520
#     80962
#     101345
#     122645
#     142292
#     160027
#     196752
#     215612
#     231940
#     260005
#     275830
#     292012
# 
# Disc length: 4139 seconds
# 
# Revision: 1
# Processed by: cddbd v1.4b41PL1 Copyright (c) Steve Scherf et al.
# Submitted via: DiscPlay 4.0.4
# 
DISCID=d610290e
DTITLE=Barry White - Barry White
DYEAR=1900
DGENRE=
TTITLE0=Rhapsody in White
TTITLE1=Just the Way you are
TTITLE2=It's ecstasy when you lay down next to me
TTITLE3=You're the first,the last, my everything
TTITLE4=Don't make me wait too long
TTITLE5=I'm qualified to satisfy you
TTITLE6=Oh What a night for dancing
TTITLE7=Your sweetness is my weakness
TTITLE8=Satin Soul
TTITLE9=What am I gonna do with you
TTITLE10=Let the music play
TTITLE11=You see the trouble with me
TTITLE12=How did you know it was me?
TTITLE13=Love's theme
EXTD=
EXTT0=
EXTT1=
EXTT2=
EXTT3=
EXTT4=
EXTT5=
EXTT6=
EXTT7=
EXTT8=
EXTT9=
EXTT10=
EXTT11=
EXTT12=
EXTT13=
PLAYORDER=
